# xmcd
#
# Track frame offsets: 
#        150
#        10262
#        22032
#        35761
#        46425
#        58459
#        72774
#        85145
#        97708
#        107838
#        121188
#        134178
#        147973
#        157455
#        167068
#        176906
#        188394
#        199798
#        210187
#        221600
#        233389
#        247535
#        268428
#        282973
#        300832
#
# Disc length: 4197 seconds
#
# Revision: 0
# Processed by: cddbd v1.5.2PL0 Copyright (c) Steve Scherf et al.
# Submitted via: ExactAudioCopy v0.99pb5
#
DISCID=65106319
DTITLE=Various  - Where the Action Is! Los Angeles Nuggets 1965-1968 -
DTITLE=Disc 3
DYEAR=1900
DGENRE=
TTITLE0=01 - Action, Action, Action -Keith Allison
TTITLE1=02 - The Rebel Kind - Dino, Desi and Billy
TTITLE2=03 - High On Love - The Knickerbockers
TTITLE3=04 - Fan Tan - Jan and Dean
TTITLE4=05 - Halloween Mary - P.F. Sloan
TTITLE5=06 - Somebody Groovy - The Mamas and The Papas
TTITLE6=07 - Daydreaming - Thorinshield
TTITLE7=08 - Just Can't Wait - The Full Treatment
TTITLE8=09 - Yellow Balloon - The Yellow Balloon
TTITLE9=10 - The Times To Come - London Phogg
TTITLE10=11 - No More Running Around - The Lamp Of Childhood
TTITLE11=12 - Little Girls Lost-And-Found - The Garden Club
TTITLE12=13 - Mothers And Fathers - The Moon
TTITLE13=14 - My Girlfriend Is A Witch - October Country
TTITLE14=15 - Montage Mirror - Roger Nichols Trio
TTITLE15=16 - Flower Eyes - Pasternak Progress
TTITLE16=17 - Come Down - The Common Cold
TTITLE17=18 - Jill - Gary Lewis and The Playboys
TTITLE18=19 - Daily Nightly - The Monkees
TTITLE19=20 - Night Time Girl - Modern Folk Quartet
TTITLE20=21 - Don't Say No - The Oracle
TTITLE21=22 - Tin Angel (Will You Ever Come Down) - Hearts And Flowers
TTITLE22=23 - Rainbow Woman - Lee Hazlewood
TTITLE23=24 - Poor Old Organ Grinder - Pleasure featuring Billy Elder
TTITLE24=25 - Baby, Please Dont Go - The Ballroom
EXTD=
EXTT0=
EXTT1=
EXTT2=
EXTT3=
EXTT4=
EXTT5=
EXTT6=
EXTT7=
EXTT8=
EXTT9=
EXTT10=
EXTT11=
EXTT12=
EXTT13=
EXTT14=
EXTT15=
EXTT16=
EXTT17=
EXTT18=
EXTT19=
EXTT20=
EXTT21=
EXTT22=
EXTT23=
EXTT24=
PLAYORDER=
